<mxfile host="www.draw.io" modified="2019-12-29T07:01:36.331Z" agent="Mozilla/5.0 (Macintosh; Intel Mac OS X 10_14_0) AppleWebKit/537.36 (KHTML, like Gecko) Chrome/79.0.3945.88 Safari/537.36" etag="3TkfsnqpIcvJ232zo5kc" version="12.4.7" type="github">
  <diagram id="HEK9kL5HOJeqkmF5gQzG" name="Page-1">
    <mxGraphModel dx="1186" dy="741" grid="1" gridSize="10" guides="1" tooltips="1" connect="1" arrows="1" fold="1" page="1" pageScale="1" pageWidth="827" pageHeight="1169" math="0" shadow="0">
      <root>
        <mxCell id="0"/>
        <mxCell id="1" parent="0"/>
        <mxCell id="XNrIRNfZfQ9Vy5YMs0N9-6" value="Factory" style="swimlane;fontStyle=1;align=center;verticalAlign=top;childLayout=stackLayout;horizontal=1;startSize=26;horizontalStack=0;resizeParent=1;resizeParentMax=0;resizeLast=0;collapsible=1;marginBottom=0;fillColor=#F08E81;fontColor=#FFFFFF;" vertex="1" parent="1">
          <mxGeometry x="480" y="160" width="160" height="52" as="geometry"/>
        </mxCell>
        <mxCell id="XNrIRNfZfQ9Vy5YMs0N9-9" value="+ createProduct(): Product&#xa;" style="text;strokeColor=none;fillColor=#F08E81;align=left;verticalAlign=top;spacingLeft=4;spacingRight=4;overflow=hidden;rotatable=0;points=[[0,0.5],[1,0.5]];portConstraint=eastwest;fontColor=#FFFFFF;" vertex="1" parent="XNrIRNfZfQ9Vy5YMs0N9-6">
          <mxGeometry y="26" width="160" height="26" as="geometry"/>
        </mxCell>
        <mxCell id="XNrIRNfZfQ9Vy5YMs0N9-10" value="ConcreteFactory" style="swimlane;fontStyle=1;align=center;verticalAlign=top;childLayout=stackLayout;horizontal=1;startSize=26;horizontalStack=0;resizeParent=1;resizeParentMax=0;resizeLast=0;collapsible=1;marginBottom=0;fillColor=#F08E81;fontColor=#FFFFFF;" vertex="1" parent="1">
          <mxGeometry x="480" y="400" width="160" height="52" as="geometry"/>
        </mxCell>
        <mxCell id="XNrIRNfZfQ9Vy5YMs0N9-11" value="+ createProduct(): Product&#xa;" style="text;strokeColor=none;fillColor=#F08E81;align=left;verticalAlign=top;spacingLeft=4;spacingRight=4;overflow=hidden;rotatable=0;points=[[0,0.5],[1,0.5]];portConstraint=eastwest;fontColor=#FFFFFF;" vertex="1" parent="XNrIRNfZfQ9Vy5YMs0N9-10">
          <mxGeometry y="26" width="160" height="26" as="geometry"/>
        </mxCell>
        <mxCell id="XNrIRNfZfQ9Vy5YMs0N9-13" value="Extends" style="endArrow=block;endSize=16;endFill=0;html=1;fontColor=#000000;entryX=0.5;entryY=1;entryDx=0;entryDy=0;exitX=0.5;exitY=0;exitDx=0;exitDy=0;" edge="1" parent="1" source="XNrIRNfZfQ9Vy5YMs0N9-10" target="XNrIRNfZfQ9Vy5YMs0N9-6">
          <mxGeometry width="160" relative="1" as="geometry">
            <mxPoint x="510" y="330" as="sourcePoint"/>
            <mxPoint x="670" y="330" as="targetPoint"/>
          </mxGeometry>
        </mxCell>
        <mxCell id="XNrIRNfZfQ9Vy5YMs0N9-14" value="Product" style="swimlane;fontStyle=1;align=center;verticalAlign=top;childLayout=stackLayout;horizontal=1;startSize=30;horizontalStack=0;resizeParent=1;resizeParentMax=0;resizeLast=0;collapsible=1;marginBottom=0;fillColor=#F08E81;fontColor=#FFFFFF;" vertex="1" parent="1">
          <mxGeometry x="120" y="160" width="160" height="30" as="geometry"/>
        </mxCell>
        <mxCell id="XNrIRNfZfQ9Vy5YMs0N9-16" value="ConcreteProduct" style="swimlane;fontStyle=1;align=center;verticalAlign=top;childLayout=stackLayout;horizontal=1;startSize=30;horizontalStack=0;resizeParent=1;resizeParentMax=0;resizeLast=0;collapsible=1;marginBottom=0;fillColor=#F08E81;fontColor=#FFFFFF;" vertex="1" parent="1">
          <mxGeometry x="120" y="400" width="160" height="30" as="geometry"/>
        </mxCell>
        <mxCell id="XNrIRNfZfQ9Vy5YMs0N9-18" value="Extends" style="endArrow=block;endSize=16;endFill=0;html=1;fontColor=#000000;entryX=0.5;entryY=1;entryDx=0;entryDy=0;exitX=0.5;exitY=0;exitDx=0;exitDy=0;" edge="1" parent="1" source="XNrIRNfZfQ9Vy5YMs0N9-16" target="XNrIRNfZfQ9Vy5YMs0N9-14">
          <mxGeometry width="160" relative="1" as="geometry">
            <mxPoint x="150" y="330" as="sourcePoint"/>
            <mxPoint x="310" y="330" as="targetPoint"/>
          </mxGeometry>
        </mxCell>
        <mxCell id="XNrIRNfZfQ9Vy5YMs0N9-19" value="Use" style="endArrow=open;endSize=12;dashed=1;html=1;fontColor=#000000;entryX=1;entryY=0.5;entryDx=0;entryDy=0;exitX=0;exitY=0.25;exitDx=0;exitDy=0;" edge="1" parent="1" source="XNrIRNfZfQ9Vy5YMs0N9-10" target="XNrIRNfZfQ9Vy5YMs0N9-16">
          <mxGeometry width="160" relative="1" as="geometry">
            <mxPoint x="120" y="480" as="sourcePoint"/>
            <mxPoint x="280" y="480" as="targetPoint"/>
          </mxGeometry>
        </mxCell>
      </root>
    </mxGraphModel>
  </diagram>
</mxfile>
